<?xml version="1.0" encoding="utf-8"?>
<!-- Generator: Adobe Illustrator 16.0.0, SVG Export Plug-In . SVG Version: 6.00 Build 0)  -->
<!DOCTYPE svg PUBLIC "-//W3C//DTD SVG 1.1//EN" "http://www.w3.org/Graphics/SVG/1.1/DTD/svg11.dtd">
<svg version="1.1" id="Capa_1" xmlns="http://www.w3.org/2000/svg" xmlns:xlink="http://www.w3.org/1999/xlink" x="0px" y="0px"
	 width="392.404px" height="120.253px" viewBox="0 0 392.404 120.253" enable-background="new 0 0 392.404 120.253"
	 xml:space="preserve">
<g>
	<g>
		<g>
			<g>
				<g>
					<g>
						
							<rect x="327.923" y="15.896" transform="matrix(0.7071 -0.7071 0.7071 0.7071 81.8945 243.5453)" fill="#276BA4" width="14.04" height="14.036"/>
					</g>
					<g>
						
							<rect x="339.674" y="27.613" transform="matrix(0.7071 -0.7071 0.7071 0.7071 77.0555 255.2921)" fill="#276BA4" width="14.037" height="14.038"/>
					</g>
					<g>
						
							<rect x="351.415" y="39.289" transform="matrix(0.7071 -0.7071 0.7071 0.7071 72.2379 267.0148)" fill="#276BA4" width="14.039" height="14.039"/>
					</g>
					<g>
						<polygon fill="#276BA4" points="380.073,58.176 370.151,68.103 360.22,58.176 370.151,48.25 						"/>
					</g>
					<g>
						
							<rect x="351.52" y="63.051" transform="matrix(0.7071 -0.7071 0.7071 0.7071 55.4659 274.0482)" fill="#276BA4" width="14.037" height="14.039"/>
					</g>
					<g>
						
							<rect x="339.676" y="51.081" transform="matrix(0.7071 -0.7071 0.7071 0.7071 60.4662 262.1744)" fill="#276BA4" width="14.038" height="14.038"/>
					</g>
					<g>
						
							<rect x="327.912" y="39.525" transform="matrix(0.7071 -0.7071 0.7071 0.7071 65.198 250.4794)" fill="#276BA4" width="14.042" height="14.038"/>
					</g>
					<g>
						
							<rect x="316.418" y="27.621" transform="matrix(0.707 -0.7072 0.7072 0.707 70.2783 238.8988)" fill="#276BA4" width="14.034" height="14.038"/>
					</g>
					<g>
						
							<rect x="316.422" y="51.162" transform="matrix(0.707 -0.7072 0.7072 0.707 53.6205 245.7872)" fill="#276BA4" width="14.035" height="14.038"/>
					</g>
					<g>
						
							<rect x="304.5" y="39.476" transform="matrix(0.7071 -0.7071 0.7071 0.7071 58.3736 233.9082)" fill="#276BA4" width="14.038" height="14.04"/>
					</g>
					<g>
						
							<rect x="292.743" y="51.156" transform="matrix(0.7071 -0.7071 0.7071 0.7071 46.6595 228.9956)" fill="#276BA4" width="14.037" height="14.034"/>
					</g>
					<g>
						
							<rect x="304.506" y="63.08" transform="matrix(0.7071 -0.7071 0.7071 0.7071 41.6765 240.8133)" fill="#276BA4" width="14.039" height="14.037"/>
					</g>
				</g>
			</g>
			<g>
				<g>
					
						<rect x="327.943" y="63.087" transform="matrix(0.7071 -0.7071 0.7071 0.7071 48.5272 257.3732)" fill="#C13128" width="14.039" height="14.036"/>
				</g>
			</g>
		</g>
		<g>
			<g>
				<g>
					<path fill="#C13126" d="M308.902,95.732c0-1.137,0.212-2.262,0.645-3.365c0.431-1.104,1.057-2.096,1.884-2.973
						c0.821-0.88,1.82-1.588,2.995-2.131c1.175-0.545,2.517-0.814,4.027-0.814c1.809,0,3.373,0.371,4.695,1.115
						c1.322,0.746,2.31,1.734,2.959,2.961l-3.92,2.789c-0.175-0.457-0.41-0.833-0.697-1.133c-0.29-0.297-0.611-0.533-0.961-0.708
						s-0.715-0.298-1.091-0.369S318.694,91,318.344,91c-0.732,0-1.37,0.146-1.902,0.435c-0.537,0.29-0.979,0.667-1.319,1.132
						c-0.339,0.463-0.596,0.992-0.76,1.58c-0.168,0.586-0.25,1.166-0.25,1.746c0,0.646,0.096,1.271,0.29,1.867
						c0.189,0.598,0.474,1.121,0.839,1.576c0.369,0.459,0.82,0.822,1.356,1.096c0.531,0.271,1.137,0.406,1.804,0.406
						c0.346,0,0.708-0.041,1.077-0.119c0.364-0.077,0.723-0.213,1.063-0.395c0.339-0.184,0.649-0.422,0.92-0.713
						c0.272-0.287,0.485-0.643,0.646-1.063l4.182,2.498c-0.279,0.686-0.705,1.3-1.273,1.844c-0.57,0.542-1.22,0.999-1.945,1.367
						c-0.73,0.367-1.509,0.646-2.344,0.841c-0.831,0.192-1.645,0.288-2.431,0.288c-1.39,0-2.655-0.275-3.805-0.826
						c-1.147-0.557-2.143-1.285-2.974-2.197s-1.479-1.947-1.936-3.105C309.128,98.102,308.902,96.928,308.902,95.732z"/>
				</g>
				<g>
					<path fill="#C13126" d="M343.752,91.023h-5.364v14.207h-5.133V91.023h-5.393v-4.469h15.89V91.023L343.752,91.023z"/>
				</g>
				<g>
					<path fill="#C13126" d="M349.853,86.555h4.68l6.473,18.676h-5.209l-1.129-3.657h-4.971l-1.107,3.657h-5.233L349.853,86.555z
						 M353.848,98.154l-1.654-5.787l-1.737,5.787H353.848z"/>
				</g>
			</g>
		</g>
	</g>
	<g>
		<g>
			<polygon fill="#5B5B5F" points="271.805,4.646 271.902,6.124 271.707,6.124 			"/>
		</g>
		<g>
			<polygon fill="#5B5B5F" points="272.083,9.156 272.247,12.188 271.362,12.188 271.522,9.156 			"/>
		</g>
		<g>
			<polygon fill="#5B5B5F" points="272.387,15.221 272.524,18.252 271.081,18.252 271.216,15.221 			"/>
		</g>
		<g>
			<polygon fill="#5B5B5F" points="272.631,21.286 272.74,24.318 270.865,24.318 270.975,21.286 			"/>
		</g>
		<g>
			<polygon fill="#5B5B5F" points="272.836,27.351 272.911,30.383 270.695,30.383 270.773,27.351 			"/>
		</g>
		<g>
			<polygon fill="#5B5B5F" points="272.99,33.416 273.057,36.449 270.544,36.449 270.616,33.416 			"/>
		</g>
		<g>
			<polygon fill="#5B5B5F" points="273.105,39.481 273.154,42.513 270.455,42.513 270.5,39.481 			"/>
		</g>
		<g>
			<path fill="#5B5B5F" d="M273.198,45.545c0,0,0.008,0.758,0.02,1.517c0.005,0.758,0.009,1.515,0.009,1.515h-2.844
				c0,0,0.005-0.757,0.008-1.515c0.011-0.759,0.019-1.517,0.019-1.517H273.198z"/>
		</g>
		<g>
			<polygon fill="#5B5B5F" points="273.243,51.611 273.253,54.643 270.351,54.643 270.366,51.611 			"/>
		</g>
		<g>
			<path fill="#5B5B5F" d="M273.273,57.675c0,0,0.004,0.76,0.008,1.517c-0.004,0.758-0.008,1.517-0.008,1.517h-2.94
				c0,0,0-0.757-0.007-1.517c0.007-0.757,0.007-1.517,0.007-1.517H273.273z"/>
		</g>
		<g>
			<polygon fill="#5B5B5F" points="273.258,63.742 273.243,66.771 270.366,66.771 270.348,63.742 			"/>
		</g>
		<g>
			<path fill="#5B5B5F" d="M273.228,69.805c0,0-0.007,0.761-0.007,1.519c-0.013,0.76-0.021,1.516-0.021,1.516h-2.798
				c0,0-0.007-0.756-0.015-1.516c-0.004-0.758-0.013-1.519-0.013-1.519H273.228z"/>
		</g>
		<g>
			<polygon fill="#5B5B5F" points="273.154,75.871 273.109,78.904 270.496,78.904 270.448,75.871 			"/>
		</g>
		<g>
			<polygon fill="#5B5B5F" points="273.064,81.936 272.993,84.966 270.613,84.966 270.544,81.936 			"/>
		</g>
		<g>
			<polygon fill="#5B5B5F" points="272.918,88 272.841,91.033 270.766,91.033 270.691,88 			"/>
		</g>
		<g>
			<polygon fill="#5B5B5F" points="272.744,94.066 272.635,97.1 270.971,97.1 270.862,94.066 			"/>
		</g>
		<g>
			<polygon fill="#5B5B5F" points="272.528,100.13 272.394,103.162 271.216,103.162 271.078,100.13 			"/>
		</g>
		<g>
			<polygon fill="#5B5B5F" points="272.251,106.195 272.087,109.229 271.518,109.229 271.354,106.195 			"/>
		</g>
		<g>
			<polygon fill="#5B5B5F" points="271.902,112.262 271.805,113.738 271.707,112.262 			"/>
		</g>
	</g>
	<g>
		<path fill="#434142" d="M54.678,48.063c-2.679-3.35-7.699-5.441-12.304-5.441c-9.707,0-15.729,6.948-15.729,16.57
			c0,10.125,6.608,16.401,15.729,16.401c5.606,0,10.963-2.846,13.392-6.862l14.227,3.683c-4.854,10.379-15.313,17.239-27.617,17.239
			C25.558,89.653,12,76.847,12,59.193c0-17.658,13.56-30.46,30.375-30.46c11.549,0,21.424,6.192,26.61,15.563L54.678,48.063z"/>
		<path fill="#434142" d="M122.632,29.902v32.553c0,17.572-10.378,27.197-25.854,27.197c-15.567,0-25.858-9.625-25.858-27.197
			V29.902h14.061v32.217c0,10.043,4.1,14.395,11.799,14.395c7.697,0,11.797-4.352,11.797-14.395V29.902H122.632z"/>
		<path fill="#434142" d="M168.658,48.063c-2.68-3.35-7.699-5.441-12.305-5.441c-9.703,0-15.73,6.948-15.73,16.57
			c0,10.125,6.611,16.401,15.73,16.401c5.604,0,10.963-2.846,13.391-6.862l14.229,3.683c-4.854,10.379-15.313,17.239-27.617,17.239
			c-16.818,0-30.375-12.806-30.375-30.46c0-17.658,13.557-30.46,30.375-30.46c11.549,0,21.422,6.192,26.612,15.563L168.658,48.063z"
			/>
		<path fill="#434142" d="M229.912,75.341V88.48H186.82V29.902h42.594v13.14h-28.535v9.622h22.344v12.3h-22.344v10.377H229.912z"/>
		<path fill="#434142" d="M237.281,88.479V29.902h14.057V88.48L237.281,88.479L237.281,88.479z"/>
	</g>
</g>
</svg>
